# xmcd
#
# Track frame offsets: 
#        150
#        14340
#        30285
#        43510
#        57615
#        67715
#        83295
#        96447
#        107520
#        118970
#        133325
#        148682
#        165725
#
# Disc length: 2429 seconds
#
# Revision: 0
# Processed by: cddbd v1.5.2PL0 Copyright (c) Steve Scherf et al.
# Submitted via: ExactAudioCopyFreeDBPlugin 1.0
#
DISCID=aa097b0d
DTITLE=Posázavský expres - Pekelnej mejdan
DYEAR=1995
DGENRE=Country
TTITLE0=Bludný Holanďan -- rum-ba
TTITLE1=Hloupej Johny -- čtverylka 
TTITLE2=Vlaštovky -- wall-čik
TTITLE3=Parník do st.Louis -- swing-čik
TTITLE4=Prachy -- Š-lapák
TTITLE5=Dopis -- P-loužák
TTITLE6=20.ulice -- čtverylka
TTITLE7=Praktická holka -- pholka
TTITLE8=Senioriáda -- passo doble
TTITLE9=Konečná štace -- pop-grom
TTITLE10=Slzy - slzák
TTITLE11=Pekelnej mejdan -- foxtrot
TTITLE12=Cesta -- spartakiáda
EXTD=
EXTT0=
EXTT1=
EXTT2=
EXTT3=
EXTT4=
EXTT5=
EXTT6=
EXTT7=
EXTT8=
EXTT9=
EXTT10=
EXTT11=
EXTT12=
PLAYORDER=
